<svg xmlns="http://www.w3.org/2000/svg" width="48" height="48" viewBox="0 0 48 48">
  <defs>
    <style>
      .cls-1, .cls-4, .cls-6 {
        fill: #370f74;
      }

      .cls-1 {
        fill-rule: evenodd;
      }

      .cls-2 {
        font-size: 128.533px;
        fill: #fefefe;
      }

      .cls-2, .cls-3, .cls-6 {
        font-family: Montserrat;
      }

      .cls-2, .cls-4 {
        font-weight: 800;
      }

      .cls-3, .cls-4 {
        font-size: 50.2px;
      }

      .cls-5 {
        font-family: Poppins;
      }

      .cls-6 {
        font-size: 13.029px;
      }
    </style>
  </defs>
  <path id="Rounded_Rectangle_1" data-name="Rounded Rectangle 1" class="cls-1" d="M24.306,13.625h7.362a13.74,13.74,0,0,1,0,27.479H24.306A13.74,13.74,0,0,1,24.306,13.625Z"/>
  <path id="Rounded_Rectangle_2" data-name="Rounded Rectangle 2" class="cls-1" d="M5.177,20.217h7.034a4.177,4.177,0,0,1,0,8.354H5.177A4.177,4.177,0,0,1,5.177,20.217Z"/>
  <path id="Rounded_Rectangle_3" data-name="Rounded Rectangle 3" class="cls-1" d="M16.445,8.9a5.115,5.115,0,0,1,5.115,5.115v6.92a5.115,5.115,0,1,1-10.23,0v-6.92A5.115,5.115,0,0,1,16.445,8.9Z"/>
  <text id="Q" class="cls-2" transform="translate(17.127 34.602) scale(0.19)">Q</text>
  <text id="QuickLabz" class="cls-3" transform="translate(52.714 27.615) scale(0.228)"><tspan class="cls-4">Quick</tspan><tspan class="cls-5">Labz</tspan></text>
  <text id="SOLUTIONS" class="cls-6" transform="translate(92.831 32.546) scale(0.33)">SOLUTIONS</text>
</svg>
